<svg xmlns="http://www.w3.org/2000/svg" width="740" height="694" viewBox="0 0 740 694">
  <g id="hero-design" transform="translate(-1030 -282)">
    <g id="Rectangle_9" data-name="Rectangle 9" transform="translate(1400 282)" fill="#192734" stroke="#192734" stroke-width="1">
      <rect width="185" height="176" rx="20" stroke="none"/>
      <rect x="0.5" y="0.5" width="184" height="175" rx="19.5" fill="none"/>
    </g>
    <g id="Rectangle_16" data-name="Rectangle 16" transform="translate(1585 797)" fill="#e17108" stroke="#e17108" stroke-width="1">
      <rect width="185" height="176" rx="20" stroke="none"/>
      <rect x="0.5" y="0.5" width="184" height="175" rx="19.5" fill="none"/>
    </g>
    <g id="Rectangle_15" data-name="Rectangle 15" transform="translate(1217 800)" fill="#fff" stroke="#fff" stroke-width="1">
      <rect width="185" height="176" rx="20" stroke="none"/>
      <rect x="0.5" y="0.5" width="184" height="175" rx="19.5" fill="none"/>
    </g>
    <g id="Rectangle_14" data-name="Rectangle 14" transform="translate(1030 628)" fill="#0f1f2e" stroke="#0f1f2e" stroke-width="1">
      <rect width="185" height="176" rx="20" stroke="none"/>
      <rect x="0.5" y="0.5" width="184" height="175" rx="19.5" fill="none"/>
    </g>
    <g id="Rectangle_13" data-name="Rectangle 13" transform="translate(1400 626)" fill="#192734" stroke="#192734" stroke-width="1">
      <rect width="185" height="176" rx="20" stroke="none"/>
      <rect x="0.5" y="0.5" width="184" height="175" rx="19.5" fill="none"/>
    </g>
    <g id="Rectangle_11" data-name="Rectangle 11" transform="translate(1585 452)" fill="#fff" stroke="#707070" stroke-width="1">
      <rect width="185" height="176" rx="20" stroke="none"/>
      <rect x="0.5" y="0.5" width="184" height="175" rx="19.5" fill="none"/>
    </g>
    <g id="Rectangle_12" data-name="Rectangle 12" transform="translate(1585 452)" fill="#0f1f2e" stroke="#707070" stroke-width="1" opacity="0.7">
      <rect width="185" height="176" rx="20" stroke="none"/>
      <rect x="0.5" y="0.5" width="184" height="175" rx="19.5" fill="none"/>
    </g>
    <g id="Rectangle_10" data-name="Rectangle 10" transform="translate(1217 452)" fill="#fff" stroke="#fff" stroke-width="1">
      <rect width="185" height="176" rx="20" stroke="none"/>
      <rect x="0.5" y="0.5" width="184" height="175" rx="19.5" fill="none"/>
    </g>
    <g id="Elipse_1" data-name="Elipse 1" transform="translate(1400 458)" fill="#e17108">
      <path d="M 92.5 169.5 C 86.25492858886719 169.5 80.01393127441406 168.921875 73.95043182373047 167.7817077636719 C 68.04161834716797 166.6706390380859 62.22964096069336 165.0127868652344 56.67595291137695 162.8542327880859 C 51.22361755371094 160.7350769042969 45.9649772644043 158.1122131347656 41.04609680175781 155.0585174560547 C 36.1745719909668 152.0342407226562 31.5937614440918 148.5612182617188 27.43092918395996 144.7359008789062 C 23.26885795593262 140.9112854003906 19.4903564453125 136.7030639648438 16.20040512084961 132.2281494140625 C 12.87957096099854 127.7112350463867 10.02747631072998 122.8827362060547 7.723309516906738 117.8767623901367 C 5.376952171325684 112.779167175293 3.574928522109985 107.4447631835938 2.3673095703125 102.0217819213867 C 1.128261923789978 96.45759582519531 0.5 90.73064422607422 0.5 85 C 0.5 79.26935577392578 1.128261923789978 73.54240417480469 2.3673095703125 67.97821807861328 C 3.574928522109985 62.55523681640625 5.376952171325684 57.22083282470703 7.723309516906738 52.12323760986328 C 10.02747631072998 47.11726379394531 12.87957096099854 42.28876113891602 16.20040512084961 37.77185821533203 C 19.4903564453125 33.29692840576172 23.26885795593262 29.08871459960938 27.43092918395996 25.26409530639648 C 31.5937614440918 21.43878555297852 36.1745719909668 17.96576118469238 41.04609680175781 14.9414758682251 C 45.9649772644043 11.88778591156006 51.22361755371094 9.264928817749023 56.67595291137695 7.145761966705322 C 62.22964096069336 4.987214088439941 68.04161834716797 3.329357147216797 73.95043182373047 2.218285799026489 C 80.01393127441406 1.078119039535522 86.25492858886719 0.5 92.5 0.5 C 98.74507141113281 0.5 104.9860687255859 1.078119039535522 111.0495681762695 2.218285799026489 C 116.958381652832 3.329357147216797 122.7703552246094 4.987214088439941 128.3240509033203 7.145761966705322 C 133.7763824462891 9.264928817749023 139.0350189208984 11.88778591156006 143.9539031982422 14.9414758682251 C 148.8254241943359 17.96576118469238 153.4062347412109 21.43878555297852 157.5690765380859 25.26409530639648 C 161.7311401367188 29.08871459960938 165.5096435546875 33.29692840576172 168.7995910644531 37.77185821533203 C 172.1204223632812 42.28876113891602 174.9725189208984 47.11726379394531 177.2766876220703 52.12323760986328 C 179.623046875 57.22083282470703 181.4250640869141 62.55523681640625 182.6326904296875 67.97821807861328 C 183.8717346191406 73.54240417480469 184.5 79.26935577392578 184.5 85 C 184.5 90.73064422607422 183.8717346191406 96.45759582519531 182.6326904296875 102.0217819213867 C 181.4250640869141 107.4447631835938 179.623046875 112.779167175293 177.2766876220703 117.8767623901367 C 174.9725189208984 122.8827362060547 172.1204223632812 127.7112350463867 168.7995910644531 132.2281494140625 C 165.5096435546875 136.7030639648438 161.7311401367188 140.9112854003906 157.5690765380859 144.7359008789062 C 153.4062347412109 148.5612182617188 148.8254241943359 152.0342407226562 143.9539031982422 155.0585174560547 C 139.0350189208984 158.1122131347656 133.7763824462891 160.7350769042969 128.3240509033203 162.8542327880859 C 122.7703552246094 165.0127868652344 116.958381652832 166.6706390380859 111.0495681762695 167.7817077636719 C 104.9860687255859 168.921875 98.74507141113281 169.5 92.5 169.5 Z" stroke="none"/>
      <path d="M 92.5 1 C 86.28583526611328 1 80.07595062255859 1.575210571289062 74.04283142089844 2.709671020507812 C 68.16423797607422 3.815078735351562 62.38211822509766 5.464385986328125 56.85710144042969 7.611785888671875 C 51.43342590332031 9.719802856445312 46.20257568359375 12.32878112792969 41.309814453125 15.36625671386719 C 36.46481323242188 18.37409973144531 31.90908813476562 21.82806396484375 27.76925659179688 25.63226318359375 C 23.63090515136719 29.43507385253906 19.87409973144531 33.61906433105469 16.60324096679688 38.06805419921875 C 13.30239868164062 42.55776214599609 10.46757507324219 47.35694885253906 8.177505493164062 52.33228302001953 C 5.845932006835938 57.39778900146484 4.055313110351562 62.69840240478516 2.855361938476562 68.08690643310547 C 1.624237060546875 73.61545562744141 1 79.30585479736328 1 85 C 1 90.69414520263672 1.624237060546875 96.38454437255859 2.855361938476562 101.9130935668945 C 4.055313110351562 107.3015899658203 5.845932006835938 112.6022186279297 8.177505493164062 117.6677093505859 C 10.46757507324219 122.6430511474609 13.30239868164062 127.4422378540039 16.60324096679688 131.9319458007812 C 19.87409973144531 136.3809204101562 23.63090515136719 140.5649261474609 27.76925659179688 144.3677368164062 C 31.90908813476562 148.1719360351562 36.46481323242188 151.6259002685547 41.309814453125 154.6337432861328 C 46.20257568359375 157.6712188720703 51.43342590332031 160.2801971435547 56.85710144042969 162.3882141113281 C 62.38211822509766 164.5356140136719 68.16423797607422 166.1849212646484 74.04283142089844 167.2903289794922 C 80.07595062255859 168.4247894287109 86.28583526611328 169 92.5 169 C 98.71416473388672 169 104.9240493774414 168.4247894287109 110.9571685791016 167.2903289794922 C 116.8357620239258 166.1849212646484 122.6178817749023 164.5356140136719 128.1429138183594 162.3882141113281 C 133.5665740966797 160.2801971435547 138.7974243164062 157.6712188720703 143.690185546875 154.6337432861328 C 148.5351867675781 151.6259002685547 153.0909118652344 148.1719360351562 157.2307434082031 144.3677368164062 C 161.3690948486328 140.5649261474609 165.1259002685547 136.3809204101562 168.3967590332031 131.9319458007812 C 171.6976013183594 127.4422378540039 174.5324249267578 122.6430511474609 176.8224945068359 117.6677093505859 C 179.1540679931641 112.6022186279297 180.9446868896484 107.3015899658203 182.1446380615234 101.9130935668945 C 183.3757629394531 96.38454437255859 184 90.69414520263672 184 85 C 184 79.30585479736328 183.3757629394531 73.61545562744141 182.1446380615234 68.08690643310547 C 180.9446868896484 62.69840240478516 179.1540679931641 57.39778900146484 176.8224945068359 52.33228302001953 C 174.5324249267578 47.35694885253906 171.6976013183594 42.55776214599609 168.3967590332031 38.06805419921875 C 165.1259002685547 33.61906433105469 161.3690948486328 29.43507385253906 157.2307434082031 25.63226318359375 C 153.0909118652344 21.82806396484375 148.5351867675781 18.37409973144531 143.690185546875 15.36625671386719 C 138.7974243164062 12.32878112792969 133.5665740966797 9.719802856445312 128.1429138183594 7.611785888671875 C 122.6178817749023 5.464385986328125 116.8357620239258 3.815078735351562 110.9571685791016 2.709671020507812 C 104.9240493774414 1.575210571289062 98.71416473388672 1 92.5 1 M 92.5 0 C 143.5863342285156 0 185 38.05581665039062 185 85 C 185 131.9441833496094 143.5863342285156 170 92.5 170 C 41.41366577148438 170 0 131.9441833496094 0 85 C 0 38.05581665039062 41.41366577148438 0 92.5 0 Z" stroke="none" fill="#e17108"/>
    </g>
    <g id="Ellipse_3" data-name="Ellipse 3" transform="translate(1400 803)" fill="#0f1f2e" stroke="#0f1f2e" stroke-width="1" opacity="0.56">
      <ellipse cx="92.5" cy="85" rx="92.5" ry="85" stroke="none"/>
      <ellipse cx="92.5" cy="85" rx="92" ry="84.5" fill="none"/>
    </g>
    <g id="Ellipse_2" data-name="Ellipse 2" transform="translate(1215 630)" fill="#ad7f51" stroke="#ad7f51" stroke-width="1">
      <ellipse cx="92.5" cy="85" rx="92.5" ry="85" stroke="none"/>
      <ellipse cx="92.5" cy="85" rx="92" ry="84.5" fill="none"/>
    </g>
  </g>
</svg>
